{"title":"The Captive 2014 DVDrip English Klam","uid":11703316,"size":1381747353,"categoryP":"video","categoryS":"movies","magnet":"?xt=urn:btih:b1dbe95dc42d27d75e322e13122c0a6b6b8b91d7&amp;dn=The+Captive+2014+DVDrip+English+Klam&amp;tr=udp%3A%2F%2Ftracker.openbittorrent.com%3A80&amp;tr=udp%3A%2F%2Fopen.demonii.com%3A1337&amp;tr=udp%3A%2F%2Ftracker.coppersurfer.tk%3A6969&amp;tr=udp%3A%2F%2Fexodus.desync.com%3A6969","seeders":4,"leechers":0,"uploader":"Klambake","files":6,"time":1424007782,"description":" &lt;a href=&quot;http://i.imgur.com/AvJzCat.jpg&quot; rel=&quot;nofollow&quot; target=&quot;_NEW&quot;&gt;http://i.imgur.com/AvJzCat.jpg&lt;/a&gt;\n\nWith: Ryan Reynolds, Scott Speedman and Rosario Dawson\n\nMatthews dochter Cass werd 8 jaar geleden ontvoerd. Een reeks verontrustende aanwijzigen overtuigt Matthew echter dat Cass, nu 17, nog steeds leeft. In een race tegen de klok zullen Matthew, de rechercheurs en zelfs Cass allen hun rol moeten spelen om het mysterie van haar verdwijning op te lossen en haar te bevrijden uit haar gevangenschap.\n\nEight years after the disappearance of Cassandra, some disturbing incidents seem to indicate that she's still alive. Police, parents and Cassandra herself, will try to unravel the mystery of her disappearance.\n &lt;a href=&quot;\nhttp://www.imdb.com/title/tt2326612&quot; rel=&quot;nofollow&quot; target=&quot;_NEW&quot;&gt;\nhttp://www.imdb.com/title/tt2326612&lt;/a&gt;\t\n\n--------------------- Dutch Friends 4ever ---------------------\n---------------------------------------------------------------\n- Bezoek ook eens mijn vrienden op: &lt;a href=&quot; http://www.Film-Test.nl&quot; rel=&quot;nofollow&quot; target=&quot;_NEW&quot;&gt; http://www.Film-Test.nl&lt;/a&gt; --\n----- voor mijn Nederlandse Sync. ondertitels ---- en meer ----\n------- http://www.Film-Test.nl ---- Over Films en meer -------\n---------------------------------------------------------------\n &lt;a href=&quot;\nhttp://i.imgur.com/yyO8hxq.jpg&quot; rel=&quot;nofollow&quot; target=&quot;_NEW&quot;&gt;\nhttp://i.imgur.com/yyO8hxq.jpg&lt;/a&gt; &lt;a href=&quot;\nhttp://i.imgur.com/9TK9wWw.jpg&quot; rel=&quot;nofollow&quot; target=&quot;_NEW&quot;&gt;\nhttp://i.imgur.com/9TK9wWw.jpg&lt;/a&gt; &lt;a href=&quot;\nhttp://i.imgur.com/XsP45wA.jpg&quot; rel=&quot;nofollow&quot; target=&quot;_NEW&quot;&gt;\nhttp://i.imgur.com/XsP45wA.jpg&lt;/a&gt;\n\nGeneral:\n\nComplete name                            : The CaptiveThe Captive.avi\nFormat                                   : AVI\nFormat/Info                              : Audio Video Interleave\nFile size                                : 1.29 GiB\nDuration                                 : 1h 47mn\nOverall bit rate                         : 1 718 Kbps\n\nVideo:\n\nFormat                                   : MPEG-4 Visual\nFormat profile                           : Simple@L3\nFormat settings, BVOP                    : No\nFormat settings, QPel                    : No\nFormat settings, GMC                     : No warppoints\nFormat settings, Matrix                  : Default (H.263)\nCodec ID                                 : XVID\nCodec ID/Hint                            : XviD\nDuration                                 : 1h 47mn\nBit rate                                 : 1 323 Kbps\nWidth                                    : 720 pixels\nHeight                                   : 304 pixels\nDisplay aspect ratio                     : 2.35:1\nFrame rate                               : 25.000 fps\nColor space                              : YUV\nChroma subsampling                       : 4:2:0\nBit depth                                : 8 bits\nScan type                                : Progressive\nCompression mode                         : Lossy\nBits/(Pixel*Frame)                       : 0.242\nStream size                              : 1 014 MiB (77%)\nWriting library                          : XviD 1.1.2 (UTC 2006-11-01)\n\nAudio:\n\nFormat                                   : AC-3\nFormat/Info                              : Audio Coding 3\nMode extension                           : CM (complete main)\nFormat settings, Endianness              : Big\nCodec ID                                 : 2000\nDuration                                 : 1h 47mn\nSource duration                          : 1h 47mn\nBit rate mode                            : Constant\nBit rate                                 : 384 Kbps\nChannel(s)                               : 6 channels\nChannel positions                        : Front: L C R, Side: L R, LFE\nSampling rate                            : 48.0 KHz\nBit depth                                : 16 bits\nCompression mode                         : Lossy\nStream size                              : 294 MiB (22%)\nAlignment                                : Aligned on interleaves\nInterleave, duration                     : 32 ms (0.80 video frame)","torrent":{"xt":"urn:btih:b1dbe95dc42d27d75e322e13122c0a6b6b8b91d7","amp;dn":"The+Captive+2014+DVDrip+English+Klam","amp;tr":["udp%3A%2F%2Ftracker.openbittorrent.com%3A80","udp%3A%2F%2Fopen.demonii.com%3A1337","udp%3A%2F%2Ftracker.coppersurfer.tk%3A6969","udp%3A%2F%2Fexodus.desync.com%3A6969"],"infoHash":"b1dbe95dc42d27d75e322e13122c0a6b6b8b91d7","infoHashBuffer":{"type":"Buffer","data":[177,219,233,93,196,45,39,215,94,50,46,19,18,44,10,107,107,139,145,215]},"announce":[],"urlList":[]}}